# xmcd
#
# Track frame offsets: 
#        150
#        18631
#        40455
#        59016
#        76344
#        108182
#        125624
#        145620
#        174353
#
# Disc length: 2563 seconds
#
# Revision: 0
# Processed by: cddbd v1.5.2PL0 Copyright (c) Steve Scherf et al.
# Submitted via: ExactAudioCopy v0.99pb5
#
DISCID=760a0109
DTITLE=Patty Benson - 2,666 Miles
DYEAR=2002
DGENRE=Blues
TTITLE0=Poor Ole You
TTITLE1=2,666 Miles
TTITLE2=You Black Cat
TTITLE3=Single Blues
TTITLE4=All Dried Up
TTITLE5=Service It
TTITLE6=High Price Love
TTITLE7=I Can Too
TTITLE8=Check Out Who's Coming In
EXTD=
EXTT0=
EXTT1=
EXTT2=
EXTT3=
EXTT4=
EXTT5=
EXTT6=
EXTT7=
EXTT8=
PLAYORDER=
